<?xml version="1.0" encoding="utf-8"?>
<!-- Generator: Adobe Illustrator 24.3.0, SVG Export Plug-In . SVG Version: 6.00 Build 0)  -->
<svg version="1.1" id="OBJECTS" xmlns="http://www.w3.org/2000/svg" xmlns:xlink="http://www.w3.org/1999/xlink" x="0px" y="0px"
	 viewBox="0 0 500 500" style="enable-background:new 0 0 500 500;" xml:space="preserve">
<style type="text/css">
	.st0{opacity:0.4;}
	.st1{fill:#7D7D7D;}
	.st2{fill:#FF6F61;}
	.st3{fill:#957200;}
	.st4{fill:none;stroke:#121D30;stroke-width:0.75;stroke-miterlimit:10;}
	.st5{fill:#FFFFFF;}
	.st6{fill:#121D30;}
	.st7{fill:#D28A7B;}
	.st8{fill:#CB705D;}
	.st9{fill:#8F0010;}
	.st10{fill:none;stroke:#FFFFFF;stroke-width:0.75;stroke-miterlimit:10;}
	.st11{fill:none;stroke:#121D30;stroke-miterlimit:10;}
</style>
<g class="st0">
	<path class="st1" d="M45.1,379.4c0,0-56.5-34-35.8-79.4c12.1-26.7,64.8-16.8,59.3-61.3c-7.3-58.3-65.2-97.6-31.8-147.5
		c34.4-51.4,120.3,9.9,204.3-44.4c54.2-35.1,150.7-54.7,185.6,1.1c33.4,53.3-33.4,112.5,15.1,152.3s104,99.9-18.6,170.6
		c-6.1,3.5-11.5,9.7-18.1,9.7c-102.1,0-196.2-0.3-196.2-0.3"/>
	<path class="st1" d="M34.1,330.4c-12.7-2-0.8,35.2,17.4,30.4S44.8,332.1,34.1,330.4z"/>
	<path class="st1" d="M27,309.3c-7.3,2.6-4.8,18.4,6,15.1C43.7,321,34.2,306.7,27,309.3z"/>
	<path class="st1" d="M405.3,380.5c-113.8-0.3-196.2-0.3-196.2-0.3"/>
</g>
<g>
	<g>
		<path class="st2" d="M428.3,80.6c-2.1-0.5-4-1.4-5.7-2.7l0.5-0.7c1.6,1.2,3.4,2.1,5.3,2.6L428.3,80.6z M434.6,80.6l-0.2-0.8
			c1.9-0.4,3.8-1.3,5.3-2.6l0.5,0.7C438.6,79.2,436.7,80.1,434.6,80.6z M418.7,72.9c-0.9-1.9-1.4-4-1.4-6.1h0.9c0,2,0.4,4,1.3,5.8
			L418.7,72.9z M444.2,72.9l-0.8-0.4c0.9-1.8,1.3-3.7,1.3-5.8l0.6,0l0.2,0C445.6,68.9,445.1,71,444.2,72.9z M419.5,61l-0.8-0.4
			c0.9-1.9,2.3-3.6,3.9-4.9l0.5,0.7C421.6,57.6,420.3,59.2,419.5,61z M443.4,61c-0.9-1.8-2.1-3.4-3.7-4.6l0.5-0.7
			c1.7,1.3,3,3,3.9,4.9L443.4,61z M428.5,53.8l-0.2-0.8c1-0.2,2.1-0.4,3.2-0.4h0c1.1,0,2.1,0.1,3.1,0.3l-0.2,0.8
			c-1-0.2-1.9-0.3-2.9-0.3l0,0C430.5,53.5,429.4,53.6,428.5,53.8z"/>
	</g>
	<g>
		<path class="st2" d="M29.5,260.4L29.5,260.4h-0.3l0-0.9h0.2l0,0c1.9,0,3.8-0.2,5.6-0.6l0.2,0.8C33.4,260.2,31.4,260.4,29.5,260.4z
			 M23.2,259.7c-2-0.5-3.9-1.2-5.7-2.1l0.4-0.8c1.8,0.9,3.6,1.6,5.5,2L23.2,259.7z M41.1,257.8l-0.4-0.8c1.8-0.8,3.5-1.9,5-3.1
			l0.5,0.7C44.6,255.9,42.9,256.9,41.1,257.8z M12.4,254.3c-1.6-1.3-3-2.8-4.2-4.4l0.7-0.5c1.2,1.6,2.6,3,4.1,4.2L12.4,254.3z
			 M50.5,250.3l-0.7-0.5c1.2-1.5,2.3-3.2,3.2-5l0.8,0.4C52.9,247,51.8,248.7,50.5,250.3z M5,244.7c-0.9-1.8-1.5-3.8-1.9-5.8l0.8-0.2
			c0.4,1.9,1,3.8,1.9,5.6L5,244.7z M55.8,239.4l-0.8-0.2c0.4-1.9,0.7-3.9,0.7-5.9h0.9C56.5,235.4,56.3,237.5,55.8,239.4z M3.3,232.9
			l-0.9,0c0-2,0.3-4.1,0.8-6l0.8,0.2C3.6,229,3.4,230.9,3.3,232.9z M55.2,228.5c-0.4-1.9-1-3.8-1.8-5.6l0.8-0.4
			c0.8,1.9,1.4,3.8,1.8,5.8L55.2,228.5z M6.2,221.5l-0.8-0.4c0.9-1.8,2-3.5,3.4-5.1l0.7,0.5C8.1,218.1,7.1,219.8,6.2,221.5z
			 M50.5,217.8c-1.2-1.6-2.5-3-4-4.3l0.6-0.7c1.5,1.3,2.9,2.8,4.2,4.4L50.5,217.8z M13.7,212.5l-0.5-0.7c1.6-1.2,3.4-2.3,5.2-3.1
			l0.4,0.8C16.9,210.3,15.2,211.4,13.7,212.5z M41.5,210.2c-1.8-0.9-3.6-1.6-5.5-2.1l0.2-0.8c2,0.5,3.9,1.2,5.7,2.2L41.5,210.2z
			 M24.3,207.7l-0.2-0.8c1.7-0.4,3.5-0.5,5.3-0.5c0.3,0,0.5,0,0.8,0l0,0.9c-0.2,0-0.5,0-0.7,0C27.7,207.2,26,207.4,24.3,207.7z"/>
	</g>
	<g>
		<circle class="st2" cx="54.8" cy="248.4" r="8.1"/>
	</g>
	<g>
		<circle class="st2" cx="414.2" cy="232.4" r="6"/>
	</g>
	<g>
		<path class="st2" d="M425.9,56.5c0,2.4-1.9,4.3-4.3,4.3c-2.4,0-4.3-1.9-4.3-4.3c0-2.4,1.9-4.3,4.3-4.3
			C424,52.2,425.9,54.1,425.9,56.5z"/>
	</g>
	<g>
		<path class="st2" d="M207.2,52.2c0,3.5-2.9,6.4-6.4,6.4s-6.4-2.9-6.4-6.4c0-3.5,2.9-6.4,6.4-6.4C204.4,45.7,207.2,48.6,207.2,52.2
			z"/>
	</g>
	<g>
		<path class="st2" d="M212.4,71.9c-0.5,0-1,0-1.5-0.1l0.1-0.9c1.9,0.3,3.9,0,5.6-0.8L217,71C215.5,71.6,214,71.9,212.4,71.9z
			 M205.2,69.4c-1.6-1.3-2.9-3-3.6-5l0.8-0.3c0.7,1.8,1.9,3.4,3.4,4.6L205.2,69.4z M221.8,67.1l-0.7-0.5c1.1-1.6,1.8-3.4,2-5.3
			l0.9,0.1C223.7,63.4,223,65.4,221.8,67.1z M201.7,60.3h-0.9c0-2.1,0.6-4.1,1.6-5.9l0.7,0.4C202.2,56.5,201.7,58.4,201.7,60.3z
			 M222,55.6c-0.8-1.7-2.1-3.2-3.8-4.3l0.5-0.7c1.7,1.1,3.2,2.7,4.1,4.6L222,55.6z M207.3,50.9l-0.4-0.8c1.8-1,3.9-1.5,6-1.4l0,0.9
			C211,49.5,209,50,207.3,50.9z"/>
	</g>
	<g>
		<path class="st2" d="M427.4,255.4c-2.1-0.2-4.1-0.7-5.9-1.7l0.4-0.8c1.7,0.9,3.6,1.5,5.6,1.6L427.4,255.4z M433.5,254.6l-0.3-0.8
			c1.9-0.6,3.5-1.7,4.9-3l0.6,0.6C437.2,252.8,435.4,253.9,433.5,254.6z M416.8,249.7c-1.3-1.6-2.2-3.5-2.8-5.5l0.8-0.2
			c0.5,1.9,1.4,3.6,2.6,5.2L416.8,249.7z M442.3,246.4l-0.8-0.3c0.8-1.8,1.2-3.7,1.2-5.7h0.9C443.5,242.5,443.1,244.5,442.3,246.4z
			 M442.6,238.8c-0.2-1.9-0.8-3.8-1.8-5.5l0.7-0.4c1,1.8,1.7,3.8,1.9,5.8L442.6,238.8z M414.5,238.2l-0.8-0.1c0.3-2.1,1-4,2.1-5.7
			l0.7,0.5C415.5,234.5,414.8,236.3,414.5,238.2z M437,229c-1.6-1.2-3.3-2-5.3-2.4l0.2-0.8c2,0.5,3.9,1.3,5.6,2.6L437,229z
			 M420.6,228.7l-0.5-0.7c1.7-1.2,3.6-2,5.7-2.3l0.2,0.8C424,226.8,422.2,227.6,420.6,228.7z"/>
	</g>
</g>
<g>
	<g>
		<path class="st3" d="M320.5,262.5l4.3,16.1l89.4,0.4c2.6,0,3.8,2,2.8,4.4l-39.6,94.4c-0.7,1.8-3.1,3.2-5.3,3.2l-146.6-0.7
			c-2.2,0-3.7-1.5-3.4-3.2l14.8-90.7l1.3-8.1l2.3-14c0.4-2.5,2.9-4.6,5.5-4.6l71,0.3C318.7,260,320.1,261,320.5,262.5z"/>
		<path class="st4" d="M245.9,259.7l71,0.3c1.8,0,3.2,1,3.5,2.5l4.3,16.1l87.7,0.4"/>
		<g>
			<rect x="232.8" y="231.2" class="st5" width="129.7" height="66.5"/>
			<line class="st4" x1="244.6" y1="231.2" x2="336.9" y2="231.2"/>
		</g>
		<path class="st3" d="M287.3,258.8l7.4,14.2h76.2c2.2,0,4,1.8,4,4v100c0,2.2-1.8,4-4,4H224.8c-2.2,0-4-1.8-4-4v-96.6V273v-12.4
			c0-2.2,1.8-4,4-4h59C285.2,256.7,286.6,257.5,287.3,258.8z"/>
		<path class="st4" d="M224.8,256.7h59c1.5,0,2.8,0.8,3.5,2.1l7.4,14.2h76.2"/>
		<g>
			<circle class="st6" cx="365.3" cy="276.7" r="20.9"/>
			<path class="st5" d="M374.2,284.5l-7.8-7.8l7.8-7.8c0.3-0.3,0.3-0.8,0-1.1c-0.3-0.3-0.8-0.3-1.1,0l-7.8,7.8l-7.8-7.8
				c-0.3-0.3-0.8-0.3-1.1,0c-0.3,0.3-0.3,0.8,0,1.1l7.8,7.8l-7.8,7.8c-0.3,0.3-0.3,0.8,0,1.1c0.3,0.3,0.8,0.3,1.1,0l7.8-7.8l7.8,7.8
				c0.3,0.3,0.8,0.3,1.1,0C374.5,285.3,374.5,284.8,374.2,284.5z"/>
		</g>
		<g>
			<path class="st4" d="M280.9,347.1c12.9-17.4,29.1-10.2,33.2,0"/>
			<g>
				<path class="st6" d="M278.2,310.7c0,4.5-2,8.2-4.5,8.2c-2.5,0-4.5-3.7-4.5-8.2c0-4.5,2-8.2,4.5-8.2
					C276.2,302.5,278.2,306.2,278.2,310.7z"/>
				<path class="st6" d="M325.8,310.7c0,4.5-2,8.2-4.5,8.2s-4.5-3.7-4.5-8.2c0-4.5,2-8.2,4.5-8.2
					C323.8,302.5,325.8,306.2,325.8,310.7z"/>
			</g>
		</g>
	</g>
	<g>
		<g>
			<g>
				<path class="st6" d="M136.6,71.7c0,0,8.8-12.8,19.7-6.4c13.7,8-2.8,27,7.3,32.5c10.2,5.5,20.6,5.9,23.6,21.2
					c3.8,19.9-32.2,47.9-62.6,30.2s-19.6-50.9-5.3-57.5C136.4,83.7,136.6,71.7,136.6,71.7z"/>
				<path class="st7" d="M142.6,101.7v17.6c0,2.3-0.9,4.3-2.4,5.8c-1.5,1.5-3.5,2.4-5.8,2.4c-4.6,0-8.2-3.7-8.2-8.2v-17.6
					L142.6,101.7L142.6,101.7z"/>
				<g>
					<path class="st7" d="M113.5,96.3c0.7,3.3,3.9,5.5,7.3,4.8c3.3-0.7,5.5-3.9,4.8-7.3c-0.7-3.3-3.9-5.5-7.3-4.8
						C115,89.7,112.9,93,113.5,96.3z"/>
					<line class="st4" x1="115.2" y1="94" x2="120.1" y2="97.3"/>
				</g>
				<g>
					<path class="st7" d="M148.5,95.1c0.7,3.3,3.9,5.5,7.3,4.8c3.3-0.7,5.5-3.9,4.8-7.3c-0.7-3.3-3.9-5.5-7.3-4.8
						C150,88.5,147.8,91.7,148.5,95.1z"/>
					<path class="st6" d="M154,93.8c0,0,3.5-3.9,2.3-13h-4.9L154,93.8z"/>
					<line class="st4" x1="153.5" y1="96.5" x2="158.3" y2="91.9"/>
				</g>
				<path class="st7" d="M138.5,69.7c8.9,0,16.1,7.2,16.1,16.1v13.2c0,0.3,0,0.6-0.1,1c-0.2,1.6-1,3-2.3,4l-6.5,5.4
					c-2,1.6-4.7,2-7,0.8l-12.7-6.4c-2.2-1.1-3.6-3.3-3.6-5.8V85.7C122.4,76.9,129.6,69.7,138.5,69.7L138.5,69.7z"/>
				<path class="st4" d="M131,106.2l7.4,3.7c1.2,0.6,2.6,1,4,1h0.5"/>
				<polyline class="st4" points="141,69.7 145.1,97.8 140,97.8 				"/>
				<path class="st8" d="M154.5,90.1v8.2c-0.2,0-0.4,0-0.6,0c-2.3,0-4.2-1.9-4.2-4.2c0-2.3,1.9-4.1,4.2-4.1
					C154.1,90.1,154.3,90.1,154.5,90.1z"/>
				<path class="st8" d="M135,94.2c0,2.3-1.9,4.2-4.2,4.2c-2.3,0-4.2-1.9-4.2-4.2c0-2.3,1.9-4.2,4.2-4.2
					C133.1,90.1,135,91.9,135,94.2z"/>
				<path class="st6" d="M122.4,84.2v10.4c0,0,4.1-3.7,4-10.9L122.4,84.2z"/>
				<path class="st6" d="M159.1,67.5c-11-6.4-22.6,4.2-22.6,4.2s5.6,12.1-17.3,20c-3.8,1.3-8.5,7.6-10.8,11.3c0,0,5-14.5,6.6-23.9
					c1.6-9.4,9.9-7.9,9.9-7.9s5-12.4,19-12.3C153.7,58.9,159.1,67.5,159.1,67.5z"/>
				<g>
					<path class="st6" d="M151.2,90.9c0,1.4-0.6,2.6-1.4,2.6c-0.8,0-1.4-1.2-1.4-2.6c0-1.2,0.4-2.2,1-2.5h0l1.8,1.6
						C151.2,90.2,151.2,90.6,151.2,90.9z"/>
					<path class="st6" d="M136.2,90.9c0,1.4-0.6,2.6-1.4,2.6c-0.8,0-1.4-1.2-1.4-2.6c0-0.4,0.1-0.8,0.2-1.2l2-1.1
						C135.9,89.1,136.2,89.9,136.2,90.9z"/>
				</g>
				<path class="st6" d="M148.3,79.4c2-1.3,3.3-1,3,1.8L148.3,79.4z"/>
				<path class="st6" d="M132,81.2c-0.4-2.3,0.3-3.4,2.7-2.1L132,81.2z"/>
			</g>
			<path class="st4" d="M138.5,103c2.2-2.9,4.9-1.7,5.6,0"/>
		</g>
		<path class="st7" d="M169.2,178L169.2,178c3.9-2,5.4-6.7,3.4-10.6l-18.1-36.1c-2-3.9-6.7-5.4-10.6-3.4l0,0
			c-3.9,2-5.4,6.7-3.4,10.6l17.7,34.7c1.5,2.8,4.1,4.8,7.2,5.3C166.8,178.7,168.1,178.6,169.2,178z"/>
		<path class="st7" d="M95.5,185.2L95.5,185.2c-4.2-1.1-6.7-5.3-5.7-9.5l9.5-39.2c1.1-4.2,5.3-6.7,9.5-5.7l0,0
			c4.2,1.1,6.7,5.3,5.7,9.5l-9.4,37.8c-0.8,3-2.9,5.6-5.8,6.8C98,185.3,96.8,185.5,95.5,185.2z"/>
		<g>
			<polygon class="st3" points="168.9,146.8 153.9,145.8 138,151 153.9,151.6 			"/>
			<path class="st3" d="M164,132.7l2.5,19.7l-23.8,3.3l3.5-35.3l6.5,0.9C158.6,122.1,163.3,126.8,164,132.7z"/>
			<polygon class="st3" points="168.9,146.8 153.9,151.6 138,151 141.1,159.8 155,159.1 169.8,154.5 			"/>
		</g>
		<path class="st3" d="M152,183.1h-31.4l-20.2-39.2c-3.3-6.4-0.5-14.4,6.1-17.3l20.9-9.3l18.9,3.2c6.5,1.1,11.1,7.1,10.5,13.7
			L152,183.1z"/>
		<polygon class="st3" points="143.5,131.4 145.8,116 119.4,113.4 121.9,131.4 		"/>
		<g>
			<path class="st5" d="M122.4,124.8c4,5.1,8.6,7.9,13.2,7.9c4.2,0,7.6-2.4,9.7-6.5c-0.1,1.9-0.2,4-0.4,6.2
				c-0.8,8.2-2.4,13.7-4.6,16c-0.7,0.7-1.5,1.1-2.4,1.1c-0.4,0-0.7-0.1-1.1-0.2c-3.9-1.2-7.9-6.7-11.4-15.6
				C124.1,130.5,123.1,127.3,122.4,124.8 M120.4,120.3c0,0,6,26.6,16.2,29.8c0.5,0.2,0.9,0.2,1.4,0.2c8.8,0,8.2-29.9,8.2-29.9
				c-1.1,7.4-5.4,11.5-10.6,11.5C130.7,131.9,125,128.2,120.4,120.3L120.4,120.3z"/>
		</g>
		<g>
			<polygon class="st7" points="158.9,365.7 174.7,365.7 168.3,316.7 152.5,316.7 			"/>
			<polygon class="st5" points="157.4,365.6 175.2,365.6 172.4,342.3 154.7,343.7 			"/>
			<g>
				<path class="st9" d="M156,380.1h40.4l-1.1-3.6c-0.4-1.2-0.9-2.3-1.5-3.3c-1.4-2.1-3.5-3.7-5.9-4.6l-1.1-0.4
					c-1.1-0.4-2.1-0.9-3-1.5c-0.8-0.5-1.6-1.1-2.2-1.8c-1.5-1.4-2.6-3.2-3.4-5.2h-22.7l0.4,13.4L156,380.1z"/>
				<line class="st4" x1="171.5" y1="362.2" x2="179.5" y2="362.2"/>
				<line class="st4" x1="173.6" y1="365" x2="181.6" y2="365"/>
				<g>
					<path class="st4" d="M163.6,370.4c0,0.5,0.4,1,1,1s1-0.4,1-1s-0.4-1-1-1S163.6,369.9,163.6,370.4z"/>
					<path class="st4" d="M168.4,370.4c0,0.5,0.4,1,1,1c0.5,0,1-0.4,1-1s-0.4-1-1-1C168.9,369.4,168.4,369.9,168.4,370.4z"/>
				</g>
				<path class="st5" d="M156,380.1h40.4l-1.1-3.6c-0.4-1.2-0.9-2.3-1.5-3.3h-38L156,380.1z"/>
				<line class="st4" x1="155.8" y1="376.7" x2="181.2" y2="376.7"/>
				<path class="st5" d="M173.7,380.1h22.7l-1.1-3.6c-0.4-1.2-0.9-2.3-1.5-3.3c-1.4-2.1-3.5-3.7-5.9-4.6l-1.1-0.4
					c-1.1-0.4-2.1-0.9-3-1.5C178.6,369.3,174.6,374.2,173.7,380.1z"/>
				<path class="st6" d="M178.2,359.9l0.5-2c0.4-1.4-0.7-2.8-2.1-2.8h-2c-1.6,0-3.1,0.8-4,2.2l-1.8,2.6L178.2,359.9L178.2,359.9z"/>
			</g>
		</g>
		<g>
			<polygon class="st9" points="111.9,175.3 155.6,172.9 151.8,184 115.4,183.6 			"/>
			<path class="st9" d="M151.8,184c0,0,15,13.8,15.8,38.5h-66.9c0-23.2,14.7-38.9,14.7-38.9L151.8,184z"/>
			<path class="st9" d="M113.3,193.2h10.5c0,0-5.2,11.9-15.5,12.7"/>
			<path class="st9" d="M158.9,193.2h-5.8c0,0,2.2,11.3,11.6,12.7"/>
			<path class="st9" d="M139.3,184.7l-1,18.3c0,0-3.4-1.8-2.7-7.9"/>
			<rect x="117.6" y="182.1" class="st9" width="9.5" height="3.8"/>
			<rect x="146.9" y="182.1" class="st9" width="3.3" height="3.8"/>
			<rect x="129.8" y="182.1" class="st9" width="15" height="3.8"/>
			<rect x="135.5" y="181.3" class="st9" width="6.4" height="5.3"/>
		</g>
		<g>
			<polygon class="st7" points="97.6,365.6 113.4,366.4 121.6,313.2 105.7,312.5 			"/>
			<polygon class="st5" points="96.7,365.6 114.5,366.4 117.6,342.2 99.8,343.3 			"/>
			<g>
				<path class="st9" d="M93.2,380.1h40.4l-0.4-3.6c-0.1-1.2-0.4-2.3-0.9-3.3c-1-2.1-2.7-3.7-5-4.6l-1-0.4c-1-0.4-1.9-0.9-2.7-1.5
					c-0.7-0.5-1.3-1.1-1.9-1.8c-1.2-1.4-2-3.2-2.4-5.2H96.7l-2.2,13.4L93.2,380.1z"/>
				<line class="st4" x1="112.3" y1="362.2" x2="120.3" y2="362.2"/>
				<line class="st4" x1="113.8" y1="365" x2="121.8" y2="365"/>
				<g>
					<path class="st4" d="M102.7,370.4c-0.1,0.5,0.2,1,0.8,1s1.1-0.4,1.2-1s-0.2-1-0.8-1C103.4,369.4,102.8,369.9,102.7,370.4z"/>
					<path class="st4" d="M107.5,370.4c-0.1,0.5,0.2,1,0.8,1s1.1-0.4,1.2-1s-0.2-1-0.8-1S107.7,369.9,107.5,370.4z"/>
				</g>
				<path class="st5" d="M93.2,380.1h40.4l-0.4-3.6c-0.1-1.2-0.4-2.3-0.9-3.3h-38L93.2,380.1z"/>
				<line class="st4" x1="119.4" y1="376.7" x2="94" y2="376.7"/>
				<path class="st5" d="M111,380.1h22.7l-0.4-3.6c-0.1-1.2-0.4-2.3-0.9-3.3c-1-2.1-2.7-3.7-5-4.6l-1-0.4c-1-0.4-1.9-0.9-2.7-1.5
					C117.9,369.3,113,374.2,111,380.1z"/>
				<path class="st6" d="M119.4,359.9l0.9-2c0.6-1.4-0.1-2.8-1.6-2.8h-2c-1.6,0-3.3,0.8-4.4,2.2l-2.3,2.6L119.4,359.9L119.4,359.9z"
					/>
			</g>
		</g>
		<polygon class="st9" points="135.7,221.3 145.2,337.2 178.3,337.2 167.5,221.7 		"/>
		<polygon class="st9" points="106,274.4 94.3,337.2 127.4,337.2 137.8,274.9 		"/>
		<path class="st9" d="M106,274.4c0,0-5.2-34.4-5.2-52.1h33.1l4,52.6L106,274.4z"/>
		<g>
			<path class="st3" d="M95.8,138.8l-3.4,17.2l23.6,4.5l0.4-38.5l-11,4.8C100.5,129,96.9,133.5,95.8,138.8z"/>
			<polygon class="st5" points="90.3,150.3 105.2,153.3 116.2,154.7 112.7,163.4 89.1,157.9 			"/>
		</g>
		<path class="st3" d="M152.2,137.7c11.2,16.6,10.6,24.6-3.1,30.6L152.2,137.7z"/>
		<polyline class="st4" points="160,151.6 153.8,140.3 156.7,134.1 		"/>
		<g>
			<g>
				<path class="st7" d="M71.5,173.3c-6.6-3.4-14.3-3.2-14.3-3.2l2.3-13.5c13,1.5,17,7.1,18.9,10.6L71.5,173.3z"/>
				<path class="st7" d="M57.2,170.1c0,0-6.4-2.6-9.2-7.7l3-7.6c0,0,4.2,4.3,8,4.9c0,0-5-4-6-7.5l2.3-0.8c0,0,3.7,4.7,9.4,6.6
					L57.2,170.1z"/>
			</g>
			<path class="st4" d="M48.8,160.5c0,0,4.2,4.3,7.9,6.3"/>
			<path class="st4" d="M50,157.5c0,0,3.5,4.1,8.3,6.2"/>
		</g>
		<path class="st7" d="M105.4,175.6l-32-11l-4.9,5.6c5.5,6.3,11.6,11.8,18.3,15.9C95,191.1,105.4,185.1,105.4,175.6L105.4,175.6z"/>
		<polyline class="st10" points="150.3,337.2 138.7,218.7 132.9,218.7 		"/>
		<path class="st10" d="M117.6,185.9c0,0-14,19.6-11.1,41c2.9,21.4,5.5,47.5,5.5,47.5l-13,62.8"/>
		<line class="st4" x1="101.3" y1="173.5" x2="91.2" y2="170.6"/>
		<g>
			<g>
				<path class="st7" d="M189.9,161c5.7-4.8,13.2-6.3,13.2-6.3l-5.3-12.6c-12.3,4.4-15,10.7-16,14.6L189.9,161z"/>
				<path class="st7" d="M203.1,154.8c0,0,5.6-4,7.2-9.6l-4.6-6.8c0,0-3.1,5.1-6.7,6.5c0,0,4-5,4.2-8.6l-2.5-0.2
					c0,0-2.6,5.4-7.6,8.6L203.1,154.8z"/>
			</g>
			<path class="st4" d="M209.1,143.5c0,0-3.1,5.1-6.3,8"/>
			<path class="st4" d="M207.4,140.8c0,0-2.5,4.8-6.7,7.9"/>
		</g>
		<path class="st7" d="M157.4,170.9l28.7-17.9l6,4.4c-3.9,7.3-8.6,14-14.3,19.6C171,183.6,159.5,180.1,157.4,170.9L157.4,170.9z"/>
		<line class="st4" x1="160.9" y1="168" x2="170.1" y2="162.9"/>
		<line class="st4" x1="99.2" y1="347.8" x2="117" y2="347.1"/>
		<line class="st4" x1="154.7" y1="347.4" x2="172.8" y2="346"/>
	</g>
	<line class="st11" x1="14.5" y1="380.5" x2="488.6" y2="380.5"/>
	<g>
		<g>
			<g>
				<path class="st5" d="M306.8,110.3c19.2,4.2,38.5,8.4,57.7,12.6c-8.8-26.2,24-43.3,15.2-69.6c-19.2-4.2-38.5-8.4-57.7-12.6
					C330.7,66.9,298,84.1,306.8,110.3z"/>
			</g>
			<g>
				<path class="st4" d="M372.7,86.9c5.8-10.4,11.2-21,6.9-33.6c-19.2-4.2-38.5-8.4-57.7-12.6"/>
				<path class="st4" d="M306.8,110.3c19.2,4.2,38.5,8.4,57.7,12.6c-2.8-8.4-1.4-15.8,1.6-22.9"/>
			</g>
		</g>
		<g>
			<g>
				<path class="st5" d="M267.2,192.9c16.9-10,33.9-20,50.9-30c-24.3-13.2-11.9-48.1-36.2-61.3c-16.9,10-33.9,20-50.9,30
					C255.2,144.8,242.9,179.6,267.2,192.9z"/>
			</g>
			<g>
				<path class="st4" d="M267.2,192.9c16.9-10,33.9-20,50.9-30c-11-6-14.5-16.4-17.3-27.3"/>
				<path class="st4" d="M260.9,113.9c-10,5.9-20,11.8-29.9,17.7c12.8,6.9,15.4,19.9,18.6,32.5"/>
			</g>
		</g>
		<g>
			<g>
				<path class="st5" d="M371,221.1c-16.9-10-33.9-20-50.9-30c24.3-13.2,11.9-48.1,36.2-61.3c16.9,10,33.9,20,50.9,30
					C382.9,173,395.2,207.9,371,221.1z"/>
			</g>
			<g>
				<path class="st4" d="M390.1,186.2c-3.5,13.3-5.6,27.5-19.2,34.8c-11.3-6.6-22.5-13.3-33.8-20"/>
				<path class="st4" d="M339.7,154.6c2.7-9.9,6.4-19.3,16.6-24.8c9.1,5.4,18.2,10.8,27.3,16.1"/>
			</g>
		</g>
	</g>
</g>
</svg>
